# xmcd
#
# Track frame offsets:
#	150
#	31126
#	76046
#	114510
#	126476
#	166982
#	190856
#	232088
#	263623
#	289742
#
# Disc length: 4258 seconds
#
# Revision: 0
# Processed by: cddbd v1.5.2PL0 Copyright (c) Steve Scherf et al.
# Submitted via: audiograbber 1.83.01
#
DISCID=8010a00a
DTITLE=Grateful Dead - 93-06-19 Soldier Field, Chicago IL
DYEAR=1900
DGENRE=
TTITLE0=Touch Of Grey
TTITLE1=Little Red Rooster
TTITLE2=Lazy River Road
TTITLE3=Me and My Uncle
TTITLE4=Maggie's Farm
TTITLE5=Broken Arrow
TTITLE6=Deal
TTITLE7=China Cat Sunflower
TTITLE8=I Know You Rider
TTITLE9=Way To Go Home
EXTD=
EXTT0=
EXTT1=
EXTT2=
EXTT3=
EXTT4=
EXTT5=
EXTT6=
EXTT7=
EXTT8=
EXTT9=
PLAYORDER=
